<?xml version="1.0" encoding="UTF-8"?>
<svg version="1.1" xmlns="http://www.w3.org/2000/svg" width="4096" height="2552">
<path d="M0,0 L628,0 L628,144 L625,157 L621,166 L615,175 L607,184 L593,193 L569,203 L541,210 L512,214 L488,215 L470,215 L469,110 L466,95 L462,84 L455,75 L446,68 L432,63 L426,62 L406,62 L395,65 L385,70 L378,77 L372,89 L369,100 L368,108 L368,451 L371,467 L375,478 L383,489 L393,496 L400,499 L410,501 L434,501 L449,498 L465,490 L469,487 L469,380 L465,365 L459,354 L448,342 L437,335 L423,330 L411,328 L411,270 L543,270 L561,274 L576,280 L586,286 L595,293 L603,300 L614,315 L622,332 L627,352 L628,360 L628,569 L155,569 L85,568 L47,567 L21,565 L-3,560 L-22,554 L-45,544 L-64,532 L-74,524 L-84,516 L-88,511 L-93,507 L-102,496 L-112,483 L-122,467 L-130,451 L-139,430 L-148,402 L-155,369 L-159,338 L-160,314 L-160,272 L-159,236 L-156,203 L-150,164 L-144,139 L-138,120 L-130,100 L-118,77 L-106,60 L-95,48 L-83,36 L-68,25 L-52,16 L-38,10 L-20,4 Z M283,103 L257,111 L236,117 L213,124 L205,130 L202,134 L202,146 L205,152 L216,161 L229,171 L242,182 L245,186 L245,190 L236,192 L213,192 L208,190 L207,188 L207,173 L194,173 L194,188 L185,190 L174,193 L135,197 L121,199 L81,200 L53,200 L14,195 L2,191 L0,188 L-1,152 L-14,152 L-14,163 L-26,165 L-36,170 L-43,178 L-45,185 L-44,195 L-38,203 L-33,205 L-25,205 L-19,203 L-14,197 L-12,196 L-11,201 L-4,209 L5,213 L29,218 L52,221 L77,221 L108,220 L125,218 L148,214 L166,211 L186,205 L191,202 L193,197 L196,204 L202,210 L208,212 L233,212 L245,208 L251,203 L256,195 L256,182 L250,170 L240,161 L231,154 L220,146 L216,143 L215,140 L225,138 L249,132 L270,128 L278,122 L283,114 L284,111 L284,103 Z M184,223 L180,227 L180,233 L186,238 L192,236 L194,233 L194,226 L191,223 Z M203,223 L199,228 L200,234 L205,238 L210,237 L214,232 L213,225 L210,223 Z M240,233 L240,328 L241,329 L254,329 L255,319 L255,273 L254,244 L249,236 L244,233 Z M-10,255 L-10,266 L-25,269 L-32,273 L-37,278 L-41,286 L-41,295 L-38,302 L-33,307 L-30,308 L-21,308 L-14,305 L-10,300 L-4,309 L4,314 L21,319 L44,323 L54,324 L94,324 L127,323 L147,321 L195,313 L213,308 L222,302 L226,296 L227,283 L225,271 L224,269 L211,270 L212,293 L201,296 L155,301 L134,303 L55,303 L20,298 L8,295 L4,292 L3,255 Z M198,326 L194,330 L194,336 L199,341 L204,340 L208,336 L208,330 L204,326 Z M220,325 L215,328 L213,331 L214,337 L219,341 L224,340 L228,335 L227,329 L224,326 Z M247,336 L241,341 L238,348 L238,354 L240,360 L236,361 L237,364 L255,362 L258,361 L258,351 L243,351 L242,347 L246,346 L252,347 L254,344 L253,338 L251,336 Z M207,370 L202,372 L198,378 L197,387 L199,392 L203,391 L209,387 L219,389 L228,393 L224,395 L210,399 L167,404 L150,406 L74,407 L54,405 L28,401 L15,396 L9,393 L7,393 L0,409 L15,417 L21,419 L16,424 L8,427 L-4,429 L-12,429 L-23,425 L-27,420 L-28,417 L-28,397 L-29,396 L-38,395 L-40,403 L-41,410 L-41,425 L-38,435 L-31,442 L-21,447 L-16,448 L-4,448 L9,444 L18,439 L23,434 L27,430 L30,421 L50,425 L57,426 L84,427 L132,426 L155,424 L189,418 L206,415 L222,410 L228,406 L244,402 L259,401 L260,387 L248,385 L237,380 L231,377 L224,372 L218,370 Z M241,417 L237,422 L238,429 L241,432 L247,433 L252,429 L253,423 L250,418 L249,417 Z M223,424 L219,428 L218,432 L221,438 L225,440 L231,439 L234,435 L234,428 L230,424 Z M239,437 L234,441 L233,448 L238,453 L245,453 L249,448 L249,442 L244,437 Z " fill="#364D9D" transform="translate(1183,1016)"/>
<path d="M0,0 L317,0 L337,2 L358,7 L373,13 L384,20 L394,29 L403,41 L411,60 L414,74 L415,85 L416,166 L417,409 L417,569 L260,569 L259,385 L255,368 L251,358 L243,346 L236,339 L226,333 L216,329 L204,327 L172,326 L172,269 L260,269 L259,108 L256,94 L252,84 L245,74 L235,67 L221,63 L206,62 L192,64 L181,68 L172,75 L165,84 L160,99 L158,113 L157,569 L138,568 L116,564 L98,558 L79,549 L65,540 L51,529 L37,515 L25,499 L14,480 L6,459 L2,443 L0,431 L-1,420 L-1,309 Z " fill="#364D9D" transform="translate(573,1016)"/>
<path d="M0,0 L158,0 L159,269 L169,267 L179,260 L181,260 L183,256 L189,249 L197,233 L203,214 L207,194 L208,92 L210,74 L215,55 L223,39 L231,29 L243,19 L259,11 L279,5 L296,2 L306,1 L331,0 L367,0 L367,170 L365,189 L360,208 L354,222 L346,234 L337,244 L329,251 L316,259 L299,266 L283,270 L283,271 L298,275 L309,280 L320,287 L330,296 L337,304 L345,317 L353,335 L358,351 L363,378 L366,409 L367,435 L367,568 L366,569 L206,569 L205,380 L203,368 L198,355 L192,346 L188,341 L178,334 L168,330 L158,328 L158,569 L0,569 Z " fill="#364D9D" transform="translate(173,1016)"/>
<path d="M0,0 L24,0 L25,59 L24,78 L24,89 L19,106 L14,114 L7,121 L-3,126 L-6,127 L-24,128 L-36,125 L-46,120 L-53,112 L-58,98 L-62,98 L-75,106 L-81,109 L-95,119 L-105,124 L-126,128 L-135,128 L-144,125 L-151,120 L-154,117 L-161,133 L-170,131 L-190,123 L-201,114 L-203,120 L-208,125 L-213,127 L-219,128 L-229,128 L-238,126 L-246,122 L-253,113 L-254,110 L-261,116 L-277,124 L-298,130 L-322,134 L-349,137 L-363,138 L-398,138 L-433,134 L-458,128 L-471,123 L-480,115 L-481,113 L-485,115 L-493,124 L-503,127 L-516,128 L-527,126 L-537,122 L-542,117 L-543,116 L-542,107 L-538,93 L-536,92 L-516,94 L-502,94 L-491,92 L-499,75 L-510,52 L-511,47 L-502,41 L-491,34 L-488,35 L-481,50 L-477,62 L-467,87 L-462,91 L-454,95 L-429,100 L-404,104 L-388,105 L-369,105 L-342,104 L-303,100 L-276,94 L-258,88 L-255,88 L-256,65 L-231,65 L-231,90 L-228,93 L-225,94 L-205,95 L-205,84 L-200,71 L-193,64 L-180,55 L-172,52 L-154,52 L-151,60 L-145,78 L-138,89 L-132,94 L-114,94 L-100,91 L-83,85 L-76,82 L-79,80 L-90,77 L-98,77 L-112,86 L-116,85 L-125,75 L-127,70 L-119,57 L-111,50 L-104,47 L-99,46 L-90,46 L-74,50 L-57,58 L-42,62 L-21,64 L-21,90 L-37,91 L-29,94 L-3,94 L-1,93 L0,62 Z M-182,79 L-185,85 L-185,90 L-180,94 L-163,102 L-161,101 L-170,80 L-171,79 Z " fill="#364D9D" transform="translate(3097,1124)"/>
<path d="M0,0 L4,0 L5,87 L7,92 L11,93 L20,90 L23,89 L27,98 L28,4 L41,2 L54,1 L55,2 L55,36 L69,29 L80,28 L92,31 L99,37 L103,45 L105,60 L106,88 L108,92 L112,93 L118,90 L121,89 L123,92 L121,80 L121,63 L124,48 L130,37 L138,31 L144,29 L156,28 L166,31 L171,34 L172,29 L196,31 L199,32 L200,83 L202,91 L207,93 L216,90 L219,90 L222,97 L223,32 L225,31 L250,29 L251,36 L261,30 L269,28 L281,29 L289,34 L292,37 L292,39 L303,32 L311,29 L323,28 L333,31 L340,38 L344,48 L345,54 L346,88 L348,92 L352,93 L361,89 L365,98 L366,104 L358,111 L348,116 L335,116 L326,112 L322,107 L318,96 L317,67 L315,55 L311,52 L305,52 L299,56 L298,114 L270,114 L269,60 L266,54 L263,52 L255,53 L251,56 L250,114 L223,114 L222,106 L212,113 L204,116 L190,116 L182,112 L177,107 L176,105 L168,112 L159,116 L142,116 L134,112 L129,107 L127,103 L118,111 L108,116 L95,116 L87,113 L82,107 L78,97 L77,88 L76,60 L73,54 L70,52 L63,52 L56,56 L55,114 L28,114 L27,105 L21,110 L11,115 L7,116 L-4,116 L-14,112 L-19,106 L-23,93 L-23,3 L-21,2 Z M158,51 L151,57 L149,63 L149,83 L154,91 L157,93 L166,92 L172,87 L172,57 L168,53 L164,51 Z M124,96 L125,98 Z M125,99 Z " fill="#364D9D" transform="translate(2923,1332)"/>
<path d="M0,0 L13,0 L22,3 L30,12 L35,19 L39,33 L41,54 L41,67 L37,84 L36,86 L53,84 L59,80 L63,75 L67,66 L65,54 L57,30 L57,28 L72,20 L77,18 L80,18 L87,36 L101,44 L109,47 L136,52 L155,55 L171,56 L190,56 L217,55 L256,51 L282,45 L302,39 L297,35 L282,30 L278,31 L265,40 L261,38 L252,27 L251,24 L257,13 L268,2 L274,0 L291,0 L303,4 L315,12 L329,19 L345,25 L359,26 L359,42 L358,53 L333,54 L311,59 L291,71 L272,78 L256,82 L228,86 L196,89 L160,89 L121,84 L101,79 L90,75 L84,93 L78,104 L70,112 L63,114 L45,114 L34,110 L33,109 L33,94 L23,107 L18,111 L5,116 L-7,118 L-23,114 L-29,112 L-29,101 L-28,89 L-2,86 L8,83 L18,77 L20,74 L20,63 L12,69 L3,73 L-9,73 L-18,69 L-24,61 L-26,51 L-26,39 L-22,21 L-17,12 L-10,5 Z M-6,30 L-7,39 L-4,41 L8,41 L15,39 L9,32 L5,30 Z " fill="#364D9D" transform="translate(2153,1173)"/>
<path d="M0,0 L2,0 L3,35 L17,28 L28,27 L37,29 L43,33 L49,40 L51,45 L52,51 L53,82 L55,90 L60,92 L66,89 L69,88 L71,92 L69,82 L69,59 L72,47 L77,37 L84,31 L91,28 L104,27 L114,30 L120,34 L120,28 L144,30 L147,31 L148,84 L150,91 L155,92 L163,89 L167,89 L171,99 L170,104 L163,110 L155,114 L151,115 L138,115 L128,110 L123,104 L118,109 L110,114 L106,115 L90,115 L80,110 L74,102 L69,107 L64,111 L56,115 L43,115 L35,112 L29,105 L26,97 L25,91 L24,60 L21,53 L17,51 L8,52 L4,55 L2,55 L2,113 L-25,113 L-25,108 L-36,114 L-40,115 L-51,115 L-60,112 L-69,106 L-78,97 L-88,81 L-93,72 L-96,77 L-97,113 L-125,113 L-126,2 L-97,2 L-96,47 L-82,25 L-71,8 L-67,2 L-36,2 L-38,7 L-54,33 L-67,54 L-67,57 L-56,78 L-48,88 L-42,92 L-35,92 L-27,90 L-26,92 L-25,3 L-22,2 Z M106,50 L100,54 L97,61 L96,68 L96,76 L98,85 L103,91 L105,92 L114,91 L119,86 L120,85 L120,56 L114,51 Z M72,96 Z M73,98 L74,100 Z " fill="#364D9D" transform="translate(2109,1333)"/>
<path d="M0,0 L25,0 L25,68 L26,87 L30,92 L37,95 L70,101 L84,103 L99,104 L119,104 L146,103 L185,99 L211,93 L230,87 L227,84 L217,80 L208,78 L195,87 L191,88 L180,74 L181,68 L187,59 L196,50 L203,48 L220,48 L233,53 L248,63 L267,71 L274,73 L287,74 L287,91 L286,101 L262,102 L239,107 L221,118 L207,124 L184,130 L166,133 L125,137 L89,137 L55,133 L32,128 L18,123 L9,116 L4,110 L0,97 Z " fill="#364D9D" transform="translate(3624,1125)"/>
<path d="M0,0 L4,0 L5,83 L7,91 L11,92 L22,88 L24,88 L23,82 L23,58 L26,46 L31,38 L37,33 L46,29 L60,27 L76,28 L87,32 L95,38 L100,46 L102,55 L102,76 L101,79 L56,82 L51,82 L54,90 L58,92 L74,92 L90,88 L99,85 L102,94 L103,103 L93,109 L77,114 L72,115 L54,115 L42,112 L34,107 L29,102 L22,109 L12,114 L8,115 L-5,115 L-15,110 L-20,104 L-24,109 L-36,115 L-53,115 L-63,110 L-67,105 L-72,91 L-74,81 L-74,60 L-71,47 L-66,37 L-59,31 L-52,28 L-39,27 L-29,30 L-23,34 L-23,2 Z M59,49 L53,53 L51,57 L51,61 L66,61 L76,60 L74,53 L71,50 L68,49 Z M-37,50 L-42,53 L-46,61 L-47,66 L-47,78 L-43,88 L-38,92 L-29,91 L-24,87 L-23,85 L-23,56 L-29,51 Z M24,88 L25,90 Z " fill="#364D9D" transform="translate(2786,1333)"/>
<path d="M0,0 L12,1 L21,5 L28,13 L32,22 L34,34 L34,55 L31,69 L26,78 L21,83 L14,87 L9,88 L-5,88 L-16,84 L-17,117 L-42,116 L-44,115 L-45,77 L-52,83 L-61,87 L-65,88 L-73,88 L-84,84 L-89,80 L-91,78 L-97,83 L-109,88 L-125,88 L-133,85 L-139,80 L-143,72 L-145,62 L-145,1 L-121,3 L-118,4 L-117,52 L-115,61 L-112,64 L-105,65 L-96,61 L-95,3 L-68,3 L-67,57 L-66,64 L-60,65 L-51,62 L-48,62 L-45,69 L-44,4 L-41,3 L-17,1 L-16,8 L-10,3 Z M-7,23 L-15,27 L-17,30 L-17,63 L-12,65 L-4,66 L2,63 L6,54 L7,41 L5,31 L1,25 L-2,23 Z " fill="#364D9D" transform="translate(3876,1360)"/>
<path d="M0,0 L3,1 L9,13 L16,33 L24,53 L29,58 L32,60 L53,60 L52,51 L52,31 L76,31 L76,47 L77,57 L83,60 L97,61 L95,55 L95,43 L100,28 L106,19 L114,12 L122,8 L125,7 L141,7 L150,11 L159,17 L166,25 L160,37 L155,44 L148,43 L138,39 L124,38 L117,40 L116,49 L124,54 L136,58 L148,58 L169,54 L174,54 L176,68 L176,78 L168,83 L158,87 L126,92 L104,94 L78,94 L69,92 L63,89 L57,83 L52,91 L35,94 L24,93 L16,88 L10,79 L8,78 L7,81 L5,81 L3,85 L-2,90 L-18,94 L-32,93 L-43,89 L-49,85 L-52,81 L-50,71 L-46,58 L-25,60 L-11,60 L0,58 L-8,40 L-19,17 L-20,13 L-9,6 Z " fill="#364D9D" transform="translate(3265,1158)"/>
<path d="M0,0 L25,0 L26,59 L25,69 L25,89 L20,105 L15,114 L8,121 L-2,126 L-5,127 L-21,128 L-30,125 L-36,120 L-40,113 L-44,115 L-50,123 L-62,127 L-75,128 L-89,125 L-98,120 L-102,116 L-101,108 L-96,92 L-75,94 L-61,94 L-50,92 L-63,64 L-70,50 L-69,46 L-50,34 L-47,35 L-40,50 L-36,62 L-29,79 L-25,89 L-20,93 L-18,94 L0,94 Z " fill="#364D9D" transform="translate(3585,1124)"/>
<path d="M0,0 L18,1 L31,5 L42,12 L49,23 L53,35 L53,43 L25,43 L21,32 L16,27 L9,24 L-1,24 L-8,27 L-13,32 L-17,43 L-18,51 L-18,64 L-16,76 L-12,85 L-8,90 L2,93 L13,92 L19,89 L23,84 L25,78 L11,78 L11,57 L54,57 L54,70 L53,86 L49,96 L45,102 L40,107 L32,112 L16,116 L-7,116 L-20,113 L-30,108 L-37,101 L-43,89 L-46,77 L-47,67 L-47,48 L-44,31 L-39,19 L-31,10 L-21,4 L-10,1 Z " fill="#364D9D" transform="translate(3522,1332)"/>
<path d="M0,0 L4,1 L5,87 L7,91 L11,92 L23,88 L29,100 L27,104 L20,110 L8,115 L-5,115 L-14,111 L-19,105 L-23,107 L-31,113 L-37,115 L-53,115 L-61,112 L-68,104 L-71,97 L-74,83 L-74,58 L-70,43 L-66,37 L-58,30 L-52,28 L-40,27 L-30,30 L-25,33 L-24,3 L-23,2 Z M-38,50 L-43,54 L-47,64 L-47,79 L-43,89 L-38,92 L-30,91 L-24,86 L-24,55 L-29,51 Z " fill="#364D9D" transform="translate(2454,1333)"/>
<path d="M0,0 L4,0 L5,81 L7,91 L12,92 L21,89 L24,88 L29,99 L28,104 L20,110 L9,115 L-4,115 L-12,112 L-17,107 L-20,104 L-24,109 L-36,115 L-53,115 L-63,110 L-69,101 L-73,86 L-74,79 L-74,63 L-71,47 L-66,37 L-59,31 L-51,28 L-39,27 L-29,30 L-24,33 L-23,2 Z M-37,50 L-42,53 L-46,62 L-47,67 L-47,76 L-44,86 L-40,91 L-38,92 L-29,91 L-23,86 L-23,55 L-31,50 Z " fill="#364D9D" transform="translate(3411,1333)"/>
<path d="M0,0 L26,0 L40,36 L51,64 L62,91 L70,107 L71,111 L40,111 L35,99 L35,96 L-6,96 L-7,94 L-13,110 L-14,111 L-42,111 L-39,101 L-29,75 L-11,28 Z M12,39 L8,52 L1,70 L1,72 L25,72 L24,67 L16,46 L14,39 Z " fill="#364D9D" transform="translate(2553,1335)"/>
<path d="M0,0 L6,0 L7,35 L15,29 L23,27 L35,28 L45,33 L51,40 L55,50 L57,63 L57,78 L55,91 L51,102 L46,109 L36,114 L32,115 L17,115 L7,110 L6,113 L-21,113 L-21,2 Z M16,50 L8,54 L6,56 L6,90 L11,92 L19,93 L24,91 L28,83 L30,74 L30,67 L27,57 L24,52 L20,50 Z " fill="#364D9D" transform="translate(2647,1333)"/>
<path d="M0,0 L6,0 L9,20 L9,37 L7,47 L1,58 L-3,63 L-17,71 L-34,74 L-83,74 L-102,71 L-112,67 L-120,60 L-126,49 L-128,38 L-128,30 L-124,10 L-121,2 L-114,3 L-101,6 L-103,17 L-105,29 L-98,35 L-89,39 L-85,40 L-21,40 L-17,39 L-17,29 L-19,3 L-8,1 Z " fill="#364D9D" transform="translate(2106,1178)"/>
<path d="M0,0 L17,1 L27,4 L35,10 L41,19 L44,29 L44,60 L40,72 L33,81 L23,86 L14,88 L-6,88 L-18,85 L-26,79 L-31,73 L-35,62 L-36,56 L-36,33 L-33,20 L-27,10 L-18,4 L-9,1 Z M1,23 L-4,26 L-7,30 L-9,38 L-9,51 L-6,60 L-1,65 L5,66 L12,64 L15,60 L17,52 L17,36 L14,28 L10,24 Z " fill="#364D9D" transform="translate(3679,1360)"/>
<path d="M0,0 L3,0 L4,78 L5,92 L10,93 L20,90 L23,90 L28,103 L21,110 L10,115 L6,116 L-4,116 L-13,113 L-18,108 L-22,100 L-24,90 L-24,3 L-11,1 Z " fill="#364D9D" transform="translate(2304,1332)"/>
<path d="M0,0 L25,0 L26,16 L26,128 L1,128 L0,126 L-1,112 L0,86 L-1,47 L0,12 Z " fill="#364D9D" transform="translate(3138,1124)"/>
<path d="M0,0 L10,1 L15,3 L12,21 L11,24 L2,22 L-5,22 L-12,25 L-17,27 L-19,32 L-20,86 L-48,86 L-48,4 L-45,3 L-21,1 L-20,2 L-19,9 L-13,4 L-6,1 Z " fill="#364D9D" transform="translate(3632,1360)"/>
<path d="M0,0 L5,0 L6,58 L8,64 L13,65 L21,62 L25,63 L29,72 L28,77 L21,83 L13,87 L9,88 L-4,88 L-12,85 L-18,78 L-21,70 L-22,64 L-22,23 L-30,23 L-30,3 Z " fill="#364D9D" transform="translate(2354,1360)"/>
<path d="M0,0 L5,0 L6,53 L8,63 L13,65 L22,62 L25,62 L30,73 L28,78 L18,85 L10,88 L-4,88 L-14,83 L-18,77 L-21,68 L-22,61 L-22,23 L-29,23 L-29,3 Z " fill="#364D9D" transform="translate(3311,1360)"/>
<path d="M0,0 L11,0 L17,4 L20,10 L20,18 L16,24 L12,28 L9,29 L1,29 L-5,25 L-9,19 L-9,9 L-4,2 Z " fill="#364D9D" transform="translate(3319,1265)"/>
<path d="M0,0 L10,0 L16,4 L19,10 L19,18 L15,25 L8,29 L1,29 L-6,25 L-10,18 L-10,9 L-6,3 Z " fill="#364D9D" transform="translate(2468,1265)"/>
<path d="M0,0 L10,0 L16,3 L19,7 L20,17 L17,23 L11,28 L9,29 L1,29 L-5,25 L-9,19 L-9,9 L-5,3 Z " fill="#364D9D" transform="translate(2038,1265)"/>
<path d="M0,0 L10,0 L16,4 L19,8 L19,20 L12,28 L9,29 L0,29 L-8,22 L-10,17 L-9,8 L-4,2 Z " fill="#364D9D" transform="translate(3832,1132)"/>
<path d="M0,0 L13,0 L19,3 L22,7 L22,16 L18,21 L13,23 L0,23 L-7,19 L-9,15 L-9,8 L-6,3 Z " fill="#364D9D" transform="translate(3296,1331)"/>
<path d="M0,0 L13,0 L19,3 L22,9 L21,17 L16,22 L13,23 L0,23 L-6,20 L-9,17 L-9,7 L-5,2 Z " fill="#364D9D" transform="translate(2339,1331)"/>
<path d="M0,0 L10,0 L15,3 L18,7 L19,14 L16,21 L11,25 L9,26 L1,26 L-7,19 L-8,16 L-8,9 L-5,3 Z " fill="#364D9D" transform="translate(2858,1265)"/>
<path d="M0,0 L10,0 L16,4 L18,9 L18,16 L15,21 L11,25 L8,26 L1,26 L-5,22 L-8,18 L-9,11 L-6,4 Z " fill="#364D9D" transform="translate(2829,1265)"/>
<path d="M0,0 L14,0 L15,9 L8,11 L-1,10 L-6,8 L-5,2 Z " fill="#364D9D" transform="translate(1155,1193)"/>
<path d="M0,0 L14,0 L14,9 L8,11 L-2,10 L-7,7 L-5,2 Z " fill="#364D9D" transform="translate(1159,1296)"/>
</svg>
